<svg xmlns="http://www.w3.org/2000/svg" width="1000" height="1000" viewBox="0 0 1000 1000" version="1.1"><path d="M 472.500 0.640 C 467.449 1.212, 455.725 3.104, 451.500 4.028 C 449.300 4.509, 445.025 5.430, 442 6.075 C 438.975 6.720, 435.375 7.590, 434 8.008 C 432.625 8.426, 429.475 9.314, 427 9.981 C 424.525 10.649, 421.719 11.601, 420.764 12.097 C 419.809 12.594, 418.148 13, 417.073 13 C 415.998 13, 414.840 13.450, 414.500 14 C 414.160 14.550, 413.002 15, 411.927 15 C 410.852 15, 409.191 15.397, 408.236 15.883 C 406.421 16.807, 401.913 18.728, 398.500 20.032 C 393.112 22.091, 387.636 24.594, 378.500 29.173 C 334.598 51.181, 296.874 84.490, 269.214 125.671 C 262.608 135.507, 260.989 138.237, 251.673 155.250 C 247.910 162.121, 239.266 183.018, 236.430 192.099 C 234.987 196.720, 233.400 201.281, 232.903 202.236 C 232.407 203.191, 232 205.077, 232 206.427 C 232 207.777, 231.550 209.160, 231 209.500 C 230.450 209.840, 230 211.640, 230 213.500 C 230 215.360, 229.598 217.131, 229.106 217.435 C 228.614 217.739, 227.956 219.678, 227.645 221.744 C 227.333 223.810, 226.590 228.200, 225.994 231.500 C 221.976 253.739, 221.257 269.153, 221.116 336.077 L 221 391.654 213.250 392.834 C 208.988 393.482, 204.407 394.010, 203.071 394.007 C 200.599 394, 199.470 394.307, 188 398.112 C 156.127 408.684, 131.432 435.668, 123.126 469 C 120.156 480.920, 120.015 491.147, 120.025 694 C 120.037 918.762, 119.851 910.780, 125.455 927.464 C 132.293 947.823, 146.210 966.253, 163.879 978.348 C 170.625 982.966, 185.152 989.990, 191 991.462 C 192.375 991.808, 195.975 992.859, 199 993.796 C 204.130 995.385, 224.734 995.500, 505.500 995.500 C 750.814 995.500, 807.425 995.257, 811.500 994.187 C 821.805 991.480, 824.526 990.630, 825.450 989.826 C 825.973 989.372, 826.972 989, 827.670 989 C 829.034 989, 837.298 985.212, 842.972 981.987 C 849.096 978.506, 861.866 967.919, 866.711 962.307 C 875.901 951.661, 882.483 940.403, 886.418 928.599 C 891.785 912.502, 891.500 925.662, 891.500 694 C 891.500 491.377, 891.394 478.065, 889.733 471.227 C 881.341 436.690, 859.012 411.195, 826 398.459 C 819.379 395.905, 814.538 394.839, 800.834 392.918 L 792.169 391.704 791.613 330.102 C 790.970 258.732, 790.304 249.160, 783.990 220.500 C 783.385 217.750, 782.639 214.033, 782.334 212.241 C 782.029 210.448, 781.379 208.734, 780.890 208.432 C 780.400 208.129, 780 206.777, 780 205.427 C 780 204.077, 779.605 202.191, 779.123 201.236 C 778.640 200.281, 777.711 197.700, 777.057 195.500 C 776.403 193.300, 775.496 190.600, 775.042 189.500 C 774.588 188.400, 772.084 182.100, 769.478 175.500 C 764.221 162.184, 756.081 146.066, 749.389 135.722 C 746.975 131.991, 745 128.502, 745 127.969 C 745 127.436, 744.550 127, 744 127 C 743.450 127, 743 126.573, 743 126.050 C 743 124.748, 737.200 116.854, 726.521 103.624 C 713.226 87.151, 697.992 72.395, 676.837 55.497 C 663.458 44.810, 632.086 27.145, 614 20.114 C 609.325 18.296, 604.600 16.425, 603.500 15.956 C 602.400 15.487, 598.350 14.128, 594.500 12.936 C 590.650 11.744, 586.719 10.371, 585.764 9.885 C 584.809 9.398, 582.923 9, 581.573 9 C 580.223 9, 578.869 8.598, 578.565 8.106 C 578.261 7.614, 576.322 6.968, 574.256 6.670 C 572.190 6.373, 568.250 5.652, 565.500 5.069 C 545.047 0.732, 536.941 0.079, 505 0.194 C 488.775 0.252, 474.150 0.453, 472.500 0.640 M 487.909 67.425 C 487.596 67.738, 483.551 68.445, 478.920 68.995 C 474.289 69.546, 468.025 70.470, 465 71.049 C 461.975 71.628, 457.810 72.351, 455.744 72.656 C 453.678 72.962, 451.739 73.614, 451.435 74.106 C 451.131 74.598, 449.585 75, 448 75 C 446.415 75, 444.840 75.450, 444.500 76 C 444.160 76.550, 442.810 77, 441.500 77 C 440.190 77, 438.840 77.450, 438.500 78 C 438.160 78.550, 437.002 79, 435.927 79 C 434.852 79, 433.191 79.397, 432.236 79.883 C 430.196 80.922, 425.337 82.968, 422.500 83.984 C 418.063 85.573, 395.989 97.052, 390.434 100.658 C 352.056 125.576, 323.051 159.917, 306.104 200.500 C 299.242 216.933, 295.933 228.754, 291.825 251.500 C 291.147 255.259, 290.593 282.624, 290.344 324.752 L 289.946 392.005 506.223 391.752 L 722.500 391.500 722.758 341.500 C 723.137 267.940, 721.867 250.466, 714.149 223 C 709.693 207.140, 697.897 180.977, 690.080 169.616 C 688.386 167.154, 687 164.696, 687 164.153 C 687 163.611, 686.654 163.017, 686.231 162.833 C 685.808 162.650, 683.380 159.575, 680.835 156 C 674.053 146.473, 670.696 142.607, 659.543 131.478 C 644.557 116.525, 637.508 110.719, 623.090 101.457 C 614.070 95.661, 595.665 86.154, 587.500 83.071 C 584.200 81.825, 580.375 80.339, 579 79.769 C 574.259 77.804, 572.492 77.165, 570 76.516 C 568.625 76.158, 565.925 75.411, 564 74.857 C 557.408 72.959, 544.004 70.245, 534.500 68.884 C 526.528 67.743, 488.773 66.560, 487.909 67.425 M 212.500 461.925 C 204.894 463.778, 198.265 468.575, 193.665 475.555 C 187.679 484.637, 187.996 472.277, 188.044 694.799 C 188.079 854.028, 188.360 899.482, 189.332 903 C 192.162 913.238, 198.246 920.545, 207.603 924.943 L 211.978 927 506 927 L 800.022 927 804.761 924.843 C 811.563 921.746, 819.331 913.472, 821.628 906.876 C 823.434 901.689, 823.500 894.190, 823.500 693.500 L 823.500 485.500 820.386 478.928 C 817.220 472.246, 812.472 467.454, 805 463.399 C 801.586 461.547, 794.277 461.496, 508.500 461.347 C 347.350 461.263, 214.150 461.523, 212.500 461.925 M 286.500 593.648 C 261.982 598.910, 247.667 606.394, 232.925 621.657 C 216.287 638.883, 207.211 658.171, 203.924 683.292 C 201.854 699.120, 204.957 719.427, 212.050 736.466 C 221.586 759.373, 243.749 781.359, 265.923 789.910 C 282.923 796.466, 267.459 796.084, 503.500 795.771 L 717.500 795.487 724 793.370 C 742.846 787.231, 755.226 779.686, 767.604 766.792 C 786.220 747.401, 795.972 723.167, 796.091 696 C 796.219 666.847, 787.147 642.914, 768.461 623.106 C 756.158 610.064, 742.778 601.743, 725.282 596.255 L 716.500 593.500 502.500 593.359 C 384.800 593.282, 287.600 593.411, 286.500 593.648 M 308.500 637.473 C 282.255 642.320, 260.678 656.941, 251.644 676 C 249.019 681.538, 248.504 683.929, 248.169 692.153 C 247.621 705.585, 250.753 714.636, 259.799 725.765 C 267.647 735.421, 285.254 745.606, 302 750.179 L 310.500 752.500 499.500 752.500 L 688.500 752.500 697.500 750.223 C 732.511 741.364, 755.205 715.974, 751.936 689.321 C 748.787 663.658, 723.377 642.555, 689 637.055 C 678.644 635.398, 317.588 635.795, 308.500 637.473 M 306 662.225 L 306 672.450 298.579 665.079 L 291.158 657.707 285.079 663.506 C 281.736 666.695, 279 669.811, 279 670.431 C 279 671.051, 281.941 674.470, 285.536 678.029 L 292.071 684.500 282.286 685 L 272.500 685.500 272.500 694.500 L 272.500 703.500 282.286 704 L 292.071 704.500 285.536 710.971 C 281.941 714.530, 279 717.919, 279 718.502 C 279 719.086, 281.701 722.236, 285.003 725.503 L 291.006 731.444 298.503 723.997 L 306 716.550 306 726.775 L 306 737 315 737 L 324 737 324 726.775 L 324 716.550 331.276 723.778 L 338.552 731.005 344.998 724.502 L 351.444 717.998 344.537 711.037 L 337.630 704.077 347.565 703.788 L 357.500 703.500 357.500 694.500 L 357.500 685.500 347.565 685.212 L 337.630 684.923 344.537 677.963 L 351.444 671.002 344.998 664.498 L 338.552 657.995 331.276 665.222 L 324 672.450 324 662.225 L 324 652 315 652 L 306 652 306 662.225 M 427 661.961 C 427 667.482, 426.853 672, 426.672 672 C 426.492 672, 423.107 668.762, 419.149 664.804 L 411.953 657.609 405.977 663.523 C 402.690 666.776, 400 669.914, 400 670.498 C 400 671.081, 402.941 674.470, 406.536 678.029 L 413.071 684.500 403.286 685 L 393.500 685.500 393.500 694.500 L 393.500 703.500 403.286 704 L 413.071 704.500 406.536 710.971 C 402.941 714.530, 400 717.919, 400 718.502 C 400 719.086, 402.690 722.224, 405.977 725.477 L 411.953 731.391 419.149 724.196 C 423.107 720.238, 426.529 717, 426.754 717 C 426.979 717, 427.034 721.388, 426.877 726.750 L 426.591 736.500 435.795 736.788 L 445 737.075 445 726.813 L 445 716.550 452.276 723.778 L 459.552 731.005 465.825 724.676 L 472.098 718.347 465.299 711.173 L 458.499 704 468.166 704 C 473.590 704, 477.980 703.570, 478.167 703.019 C 478.350 702.480, 478.275 698.318, 478 693.769 L 477.500 685.500 468.124 685.211 L 458.748 684.922 465.530 677.896 L 472.313 670.870 465.933 664.432 L 459.552 657.995 452.315 665.184 L 445.077 672.374 444.788 662.437 L 444.500 652.500 435.750 652.211 L 427 651.922 427 661.961 M 555 662.225 L 555 672.450 547.724 665.222 L 540.448 657.995 534.027 664.473 L 527.606 670.951 534.597 677.942 L 541.588 684.933 532.044 685.216 L 522.500 685.500 522 693.769 C 521.725 698.318, 521.650 702.480, 521.833 703.019 C 522.021 703.571, 526.456 704, 531.966 704 L 541.765 704 534.692 711.031 L 527.619 718.062 534.033 724.534 L 540.448 731.005 547.724 723.778 L 555 716.550 555 726.813 L 555 737.075 564.205 736.788 L 573.409 736.500 573.137 726.500 L 572.865 716.500 580.429 723.972 L 587.994 731.444 593.997 725.503 C 597.299 722.236, 600 719.086, 600 718.502 C 600 717.919, 597.059 714.530, 593.464 710.971 L 586.929 704.500 596.714 704 L 606.500 703.500 606.500 694.500 L 606.500 685.500 596.714 685 L 586.929 684.500 593.464 678.029 C 597.059 674.470, 600 671.081, 600 670.498 C 600 669.914, 597.326 666.792, 594.059 663.558 L 588.118 657.679 580.559 665.009 L 573 672.338 573 662.169 L 573 652 564 652 L 555 652 555 662.225 M 676 662.225 L 676 672.450 668.579 665.079 L 661.158 657.707 655.079 663.506 C 651.736 666.695, 649 669.811, 649 670.431 C 649 671.051, 651.941 674.470, 655.536 678.029 L 662.071 684.500 652.286 685 L 642.500 685.500 642.500 694.500 L 642.500 703.500 652.286 704 L 662.071 704.500 655.536 710.971 C 651.941 714.530, 649 717.919, 649 718.502 C 649 719.086, 651.701 722.236, 655.003 725.503 L 661.006 731.444 668.503 723.997 L 676 716.550 676 726.775 L 676 737 685 737 L 694 737 694 726.775 L 694 716.550 701.421 723.921 L 708.842 731.293 714.921 725.494 C 718.264 722.305, 721 719.189, 721 718.569 C 721 717.949, 718.059 714.530, 714.464 710.971 L 707.929 704.500 717.714 704 L 727.500 703.500 727.500 694.500 L 727.500 685.500 717.565 685.212 L 707.630 684.923 714.537 677.963 L 721.444 671.002 714.998 664.498 L 708.552 657.995 701.276 665.222 L 694 672.450 694 662.225 L 694 652 685 652 L 676 652 676 662.225" stroke="none" fill="#040404" fill-rule="evenodd"/></svg>