<?xml version="1.0" encoding="UTF-8"?>
<svg xmlns="http://www.w3.org/2000/svg"
     viewBox="0 0 1000 1000"
     width="1000" height="1000">
  <defs>
    <!-- Gradiente horizontal verde com fade -->
    <linearGradient id="fadeGreen" x1="0%" y1="0%" x2="100%" y2="0%">
      <stop offset="0%" stop-color="#3DED97" stop-opacity="1" />
      <stop offset="100%" stop-color="#3DED97" stop-opacity="0" />
    </linearGradient>

    <!-- Máscara: a forma do cadeado em branco define a área visível -->
    <mask id="mask-shape">
      <rect width="1000" height="1000" fill="black" />
      <path
        d="M 472.500 0.640 C 467.449 1.212, 455.725 3.104, 451.500 4.028 C 449.300 4.509, 445.025 5.430, 442 6.075 C 438.975 6.720, 435.375 7.590, 434 8.008 C 432.625 8.426, 429.475 9.314, 427 9.981 C 424.525 10.649, 421.719 11.601, 420.764 12.097 C 419.809 12.594, 418.148 13, 417.073 13 C 415.998 13, 414.840 13.450, 414.500 14 C 414.160 14.550, 413.002 15, 411.927 15 C 410.852 15, 409.191 15.397, 408.236 15.883 C 406.421 16.807, 401.913 18.728, 398.500 20.032 C 393.112 22.091, 387.636 24.594, 378.500 29.173 C 334.598 51.181, 296.874 84.490, 269.214 125.671 C 262.608 135.507, 260.989 138.237, 251.673 155.250 C 247.910 162.121, 239.266 183.018, 236.430 192.099 C 234.987 196.720, 233.400 201.281, 232.903 202.236 C 232.407 203.191, 232 205.077, 232 206.427 C 232 207.777, 231.550 209.160, 231 209.500 C 230.450 209.840, 230 211.640, 230 213.500 C 230 215.360, 229.598 217.131, 229.106 217.435 C 228.614 217.739, 227.956 219.678, 227.645 221.744 C 227.333 223.810, 226.590 228.200, 225.994 231.500 C 221.976 253.739, 221.257 269.153, 221.116 336.077 L 221 391.654 213.250 392.834 C 208.988 393.482, 204.407 394.010, 203.071 394.007 C 200.599 394, 199.470 394.307, 188 398.112 C 156.127 408.684, 131.432 435.668, 123.126 469 C 120.156 480.920, 120.015 491.147, 120.025 694 C 120.037 918.762, 119.851 910.780, 125.455 927.464 C 132.293 947.823, 146.210 966.253, 163.879 978.348 C 170.625 982.966, 185.152 989.990, 191 991.462 C 192.375 991.808, 195.975 992.859, 199 993.796 C 204.130 995.385, 224.734 995.500, 505.500 995.500 C 750.814 995.500, 807.425 995.257, 811.500 994.187 C 821.805 991.480, 824.526 990.630, 825.450 989.826 C 825.973 989.372, 826.972 989, 827.670 989 C 829.034 989, 837.298 985.212, 842.972 981.987 C 849.096 978.506, 861.866 967.919, 866.711 962.307 C 875.901 951.661, 882.483 940.403, 886.418 928.599 C 891.785 912.502, 891.500 925.662, 891.500 694 C 891.500 491.377, 891.394 478.065, 889.733 471.227 C 881.341 436.690, 859.012 411.195, 826 398.459 C 819.379 395.905, 814.538 394.839, 800.834 392.918 L 792.169 391.704 791.613 330.102 C 790.970 258.732, 790.304 249.160, 783.990 220.500 C 783.385 217.750, 782.639 214.033, 782.334 212.241 C 782.029 210.448, 781.379 208.734, 780.890 208.432 C 780.400 208.129, 780 206.777, 780 205.427 C 780 204.077, 779.605 202.191, 779.123 201.236 C 778.640 200.281, 777.711 197.700, 777.057 195.500 C 776.403 193.300, 775.496 190.600, 775.042 189.500 C 774.588 188.400, 772.084 182.100, 769.478 175.500 C 764.221 162.184, 756.081 146.066, 749.389 135.722 C 746.975 131.991, 745 128.502, 745 127.969 C 745 127.436, 744.550 127, 744 127 C 743.450 127, 743 126.573, 743 126.050 C 743 124.748, 737.200 116.854, 726.521 103.624 C 713.226 87.151, 697.992 72.395, 676.837 55.497 C 663.458 44.810, 632.086 27.145, 614 20.114 C 609.325 18.296, 604.600 16.425, 603.500 15.956 C 602.400 15.487, 598.350 14.128, 594.500 12.936 C 590.650 11.744, 586.719 10.371, 585.764 9.885 C 584.809 9.398, 582.923 9, 581.573 9 C 580.223 9, 578.869 8.598, 578.565 8.106 C 578.261 7.614, 576.322 6.968, 574.256 6.670 C 572.190 6.373, 568.250 5.652, 565.500 5.069 C 545.047 0.732, 536.941 0.079, 505 0.194 C 488.775 0.252, 474.150 0.453, 472.500 0.640 Z"
        fill="white"
        fill-rule="evenodd"
      />
    </mask>
  </defs>

  <!-- Fundo degradê com máscara aplicada -->
  <rect width="1000" height="1000"
        fill="url(#fadeGreen)"
        mask="url(#mask-shape)" />
</svg>
