<svg xmlns="http://www.w3.org/2000/svg" width="200" height="200" viewBox="0 0 200 200" version="1.1"><path d="" stroke="none" fill="#080404" fill-rule="evenodd"/><path d="M 99.357 42.954 C 93.855 45.271, 92.314 52.928, 96.394 57.672 C 101.692 63.831, 112 59.755, 112 51.500 C 112 45.226, 105.076 40.545, 99.357 42.954 M 71.356 53.370 C 65.650 58.278, 69.401 68, 77 68 C 84.385 68, 87.892 58.801, 82.545 53.455 C 79.384 50.293, 74.972 50.260, 71.356 53.370 M 55.174 76.314 C 49.385 82.477, 56.326 91.498, 64.455 88.379 C 65.346 88.037, 66.768 86.416, 67.616 84.776 C 71.581 77.109, 61.115 69.991, 55.174 76.314 M 55.851 103.701 C 53.310 106.656, 52.930 108.965, 54.490 111.980 C 57.418 117.642, 65.880 116.597, 67.441 110.381 C 68.951 104.362, 59.812 99.096, 55.851 103.701 M 141.750 105.080 C 139.096 106.626, 139.523 110.826, 142.470 112.168 C 147.116 114.285, 150.565 107.443, 146.066 105.035 C 143.764 103.803, 143.946 103.801, 141.750 105.080 M 72.455 126.455 C 69.479 129.430, 69.325 132.325, 72 135 C 75.783 138.783, 83 136.129, 83 130.955 C 83 128.530, 78.766 124, 76.500 124 C 75.625 124, 73.805 125.105, 72.455 126.455 M 124.565 127.928 C 122.486 130.226, 123.207 133.505, 126.135 135.072 C 130.431 137.371, 135.261 130.661, 131.800 127.200 C 130.003 125.403, 126.534 125.752, 124.565 127.928 M 98.200 135.200 C 96.407 136.993, 96.752 141.466, 98.829 143.345 C 103.912 147.946, 111.273 140.416, 106.429 135.571 C 104.569 133.712, 99.899 133.501, 98.200 135.200" stroke="none" fill="#040404" fill-rule="evenodd"/></svg>